<?xml version="1.0" standalone="no"?>
<!DOCTYPE svg PUBLIC "-//W3C//DTD SVG 20010904//EN"
 "http://www.w3.org/TR/2001/REC-SVG-20010904/DTD/svg10.dtd">
<svg version="1.0" xmlns="http://www.w3.org/2000/svg"
 width="250.000000pt" height="250.000000pt" viewBox="0 0 250.000000 250.000000"
 preserveAspectRatio="xMidYMid meet">

<g transform="translate(0.000000,250.000000) scale(0.100000,-0.100000)"
fill="#000000" stroke="none">
<path d="M1695 2327 c-118 -47 -162 -102 -199 -251 -13 -54 -27 -100 -30 -103
-3 -3 -45 -8 -93 -10 l-88 -5 -84 137 c-90 146 -118 174 -201 195 -84 22 -193
-10 -263 -78 -51 -49 -71 -91 -93 -189 -9 -45 -20 -86 -23 -92 -4 -5 -57 -14
-118 -19 -131 -12 -183 -33 -244 -100 -52 -56 -72 -103 -72 -173 0 -64 9 -84
142 -293 91 -143 94 -132 -35 -139 -84 -5 -150 -33 -204 -87 -70 -70 -98 -177
-66 -254 15 -36 102 -179 182 -302 36 -55 111 -104 158 -104 20 0 33 -12 62
-58 111 -173 123 -189 173 -215 39 -22 62 -27 117 -27 152 1 256 96 294 271
l13 56 60 7 c33 3 83 6 111 6 l51 0 65 -106 c36 -58 82 -121 102 -139 80 -73
209 -73 320 0 58 38 89 89 118 188 l26 92 110 6 c135 8 194 31 257 98 57 61
81 123 75 198 -4 53 -13 72 -110 228 l-106 170 85 7 c142 13 239 73 286 177
26 58 27 142 2 191 -50 96 -201 323 -229 345 -18 14 -50 31 -72 38 -35 12 -48
28 -116 137 -91 144 -110 166 -163 191 -46 21 -152 24 -200 6z m175 -106 c14
-10 31 -35 39 -56 13 -33 12 -46 -8 -130 -18 -76 -20 -98 -11 -116 12 -21 16
-22 114 -16 86 5 107 4 143 -13 92 -41 99 -153 16 -233 -37 -35 -79 -47 -168
-48 -94 -1 -183 -13 -196 -26 -9 -9 -89 -321 -89 -348 0 -35 18 -39 139 -36
l120 3 36 -34 c61 -56 61 -130 -1 -198 -44 -49 -72 -56 -232 -65 -147 -9 -150
-11 -177 -140 -29 -139 -82 -195 -184 -195 -114 0 -151 68 -117 213 13 51 13
59 -2 77 -17 19 -22 19 -255 7 -187 -10 -240 -16 -252 -28 -9 -8 -24 -53 -35
-100 -11 -46 -29 -102 -40 -124 -51 -101 -187 -124 -255 -44 -29 36 -33 85
-10 168 23 87 17 91 -121 91 -160 0 -204 26 -204 121 0 50 26 98 71 131 29 22
126 37 236 38 107 0 113 8 158 202 20 87 35 168 33 180 -3 22 -7 23 -124 28
-135 6 -163 17 -191 74 -19 41 -12 90 20 137 39 59 73 70 223 79 98 6 140 12
151 22 8 9 28 70 44 137 32 136 52 172 109 201 81 41 176 15 207 -57 14 -35
13 -45 -8 -141 -22 -103 -22 -105 -3 -119 14 -11 37 -13 94 -9 41 3 144 8 229
12 194 9 188 5 226 168 23 98 32 124 59 153 57 62 157 78 216 34z"/>
<path d="M1162 1566 c-176 -10 -195 -13 -210 -32 -26 -32 -99 -341 -85 -362 9
-15 28 -17 134 -16 185 2 356 14 374 28 15 11 95 311 95 357 0 10 -9 23 -19
29 -22 11 -21 11 -289 -4z"/>
</g>
</svg>
