<?xml version="1.0" standalone="no"?>
<!DOCTYPE svg PUBLIC "-//W3C//DTD SVG 20010904//EN"
 "http://www.w3.org/TR/2001/REC-SVG-20010904/DTD/svg10.dtd">
<svg version="1.0" xmlns="http://www.w3.org/2000/svg"
 width="1024.000000pt" height="1024.000000pt" viewBox="0 0 1024.000000 1024.000000"
 preserveAspectRatio="xMidYMid meet">

<g transform="translate(0.000000,1024.000000) scale(0.100000,-0.100000)"
fill="#000000" stroke="none">
<path d="M7205 9588 c-55 -4 -118 -15 -140 -22 -22 -8 -53 -17 -70 -21 -64
-13 -200 -72 -276 -118 -247 -150 -410 -341 -512 -602 -17 -44 -40 -134 -61
-235 -15 -73 -39 -172 -67 -275 -11 -38 -19 -81 -20 -95 0 -14 -10 -54 -22
-90 l-22 -65 -125 -12 c-150 -15 -583 -33 -610 -26 -11 3 -36 33 -55 67 -20
33 -49 81 -65 106 -16 25 -43 68 -60 95 -17 28 -44 70 -60 95 -16 25 -34 54
-40 65 -6 11 -24 40 -40 65 -16 25 -37 59 -46 75 -9 17 -40 66 -69 110 -61 95
-107 167 -135 215 -11 19 -28 47 -38 61 -9 14 -29 45 -45 68 -58 87 -194 202
-307 259 -178 89 -446 125 -658 86 -285 -51 -495 -163 -693 -371 -73 -77 -155
-190 -181 -250 -6 -15 -17 -35 -23 -43 -15 -19 -43 -99 -60 -170 -7 -30 -20
-82 -28 -115 -22 -87 -34 -138 -58 -240 -37 -156 -57 -238 -71 -290 l-14 -50
-150 -12 c-82 -6 -248 -17 -369 -23 -223 -11 -409 -41 -476 -76 -16 -8 -34
-14 -41 -14 -18 0 -223 -115 -262 -146 -17 -14 -49 -39 -71 -56 -69 -55 -172
-167 -222 -242 -84 -126 -152 -287 -168 -396 -24 -170 -25 -194 -9 -304 20
-142 59 -249 135 -366 16 -25 33 -54 39 -65 6 -11 24 -40 40 -65 16 -25 43
-70 61 -100 18 -30 47 -75 64 -100 17 -25 46 -70 64 -100 18 -30 45 -75 61
-100 16 -25 34 -54 40 -65 6 -11 24 -40 40 -65 16 -25 44 -70 61 -100 18 -30
51 -82 73 -116 23 -35 66 -102 96 -150 30 -48 72 -109 93 -136 21 -27 37 -57
35 -66 -5 -24 -46 -29 -327 -42 -134 -6 -265 -15 -290 -21 -25 -6 -75 -17
-111 -24 -225 -45 -509 -225 -656 -418 -140 -182 -188 -287 -235 -512 -11 -52
-11 -239 0 -290 35 -165 73 -248 197 -436 24 -36 44 -69 44 -72 0 -4 15 -29
34 -55 18 -27 42 -63 52 -82 26 -45 81 -133 134 -210 9 -14 19 -32 23 -40 4
-8 21 -35 37 -60 16 -25 37 -58 46 -75 9 -16 32 -54 50 -82 19 -29 50 -79 70
-110 20 -32 48 -76 62 -98 14 -22 37 -58 51 -80 47 -75 133 -175 185 -215 28
-22 57 -44 63 -50 27 -23 182 -97 243 -117 36 -12 104 -27 150 -33 46 -6 94
-17 107 -24 13 -6 39 -36 58 -66 19 -30 39 -62 45 -70 25 -38 110 -170 142
-220 19 -30 74 -114 121 -187 48 -72 87 -136 87 -141 0 -5 9 -17 20 -27 11
-10 20 -22 20 -27 0 -16 93 -144 144 -196 109 -113 218 -181 381 -238 197 -69
542 -50 750 41 173 76 337 192 440 310 28 32 55 63 60 69 10 10 32 42 65 92
37 56 78 132 89 166 7 21 17 40 22 43 5 4 9 16 9 28 1 12 8 40 16 62 9 22 22
72 29 112 8 40 18 81 24 91 5 10 13 43 17 73 3 30 13 69 20 87 7 18 16 55 20
82 4 27 12 54 18 59 17 14 551 50 756 50 98 1 130 -2 148 -15 12 -8 22 -20 22
-25 0 -5 8 -22 18 -37 53 -77 102 -153 102 -157 0 -3 22 -40 49 -83 27 -42 74
-115 103 -161 29 -46 63 -99 76 -118 12 -19 22 -36 22 -38 0 -2 10 -19 23 -38
12 -19 38 -60 57 -92 80 -132 189 -250 293 -314 65 -41 198 -104 237 -111 19
-4 62 -15 95 -24 42 -11 102 -16 207 -16 125 0 163 4 250 26 57 14 117 32 135
40 17 8 35 14 40 14 14 0 192 90 228 114 223 154 376 344 463 576 32 86 62
188 62 213 0 13 9 48 20 80 11 31 20 66 20 77 0 11 9 53 20 93 11 39 22 84 25
99 3 15 15 32 26 39 13 6 122 14 273 20 370 12 575 32 679 65 92 29 192 67
207 79 8 6 29 17 45 24 156 66 401 316 497 506 39 76 68 144 68 159 0 7 10 42
22 77 18 56 21 86 21 239 0 162 -2 180 -26 250 -31 91 -59 151 -97 210 -16 25
-34 54 -39 65 -5 11 -33 57 -62 102 -52 80 -108 167 -132 208 -6 11 -30 49
-53 85 -22 36 -44 72 -47 80 -4 8 -20 35 -37 60 -16 25 -43 70 -61 100 -18 30
-47 75 -64 100 -17 25 -34 52 -38 60 -4 8 -20 35 -37 60 -16 25 -43 70 -61
100 -18 30 -44 71 -58 90 -14 19 -29 39 -33 45 -4 5 -19 24 -33 41 -48 61 -49
61 210 69 385 12 562 54 825 195 84 45 286 223 327 288 9 15 29 43 44 62 31
41 129 228 129 248 0 7 6 26 14 41 8 15 21 66 29 112 8 46 20 85 26 87 14 5
15 199 1 204 -6 2 -17 40 -26 86 -8 45 -22 95 -30 110 -7 15 -14 33 -14 40 0
13 -70 136 -146 257 -24 39 -54 87 -66 109 -24 40 -31 51 -62 101 -11 17 -35
55 -54 85 -19 30 -45 71 -57 90 -12 19 -40 63 -61 98 -22 35 -59 94 -83 130
-24 37 -46 74 -49 82 -3 8 -20 36 -38 61 -17 25 -40 60 -50 79 -66 117 -140
217 -211 287 -77 76 -160 137 -223 164 -14 6 -38 18 -55 26 -28 14 -51 21
-186 56 -57 15 -71 26 -105 85 -25 45 -96 157 -135 214 -11 15 -19 30 -19 33
0 3 -8 18 -19 33 -41 60 -104 159 -139 218 -12 22 -52 84 -87 139 -36 55 -75
117 -87 139 -176 301 -323 427 -599 515 -52 17 -290 46 -319 39 -3 0 -50 -5
-105 -10z m264 -402 c84 -19 185 -74 247 -134 56 -54 97 -133 123 -234 33
-130 30 -165 -30 -408 -23 -93 -48 -197 -59 -245 -6 -27 -18 -73 -26 -101 -31
-112 -8 -206 65 -255 34 -24 39 -24 235 -22 111 1 249 7 308 13 217 23 325 11
468 -53 161 -72 275 -218 299 -384 19 -129 0 -242 -60 -355 -24 -47 -38 -67
-86 -129 -68 -87 -140 -148 -236 -199 -112 -59 -203 -76 -452 -85 -99 -4 -247
-11 -330 -16 -82 -5 -220 -13 -306 -18 -148 -8 -159 -10 -200 -37 -24 -16 -52
-38 -62 -49 -25 -28 -65 -119 -72 -163 -6 -38 -31 -140 -66 -269 -10 -40 -19
-81 -19 -91 0 -10 -8 -48 -19 -83 -10 -35 -24 -89 -30 -119 -34 -158 -48 -218
-55 -228 -4 -7 -12 -40 -17 -74 -6 -35 -16 -83 -24 -108 -41 -131 -66 -268
-55 -313 20 -93 121 -154 224 -137 89 14 540 33 665 27 102 -4 124 -8 181 -35
157 -73 256 -191 311 -367 11 -37 11 -177 -1 -230 -13 -61 -41 -138 -57 -156
-7 -8 -13 -21 -13 -27 0 -20 -116 -157 -171 -202 -152 -126 -279 -165 -569
-174 -107 -4 -244 -11 -305 -17 -60 -5 -193 -13 -296 -18 -177 -8 -187 -9
-232 -35 -85 -50 -124 -121 -155 -281 -10 -49 -25 -114 -62 -265 -37 -150 -41
-166 -52 -220 -17 -83 -54 -184 -86 -231 -44 -67 -59 -87 -91 -121 -49 -54
-224 -168 -257 -168 -6 0 -25 -7 -42 -16 -17 -8 -81 -21 -143 -28 -98 -11
-123 -10 -208 4 -53 10 -112 26 -131 37 -119 65 -181 126 -224 218 -15 33 -33
69 -39 80 -6 11 -13 79 -15 150 -3 102 0 145 13 195 9 36 23 92 29 125 7 33
15 66 19 72 4 7 16 58 26 115 16 91 17 108 5 150 -15 50 -58 95 -112 117 -26
11 -59 11 -175 2 -78 -6 -250 -16 -382 -21 -132 -6 -307 -15 -390 -20 -82 -6
-253 -15 -380 -20 -355 -16 -546 -29 -592 -41 -26 -7 -60 -29 -91 -58 -52 -48
-80 -108 -100 -216 -5 -27 -18 -81 -27 -120 -16 -66 -41 -168 -63 -260 -62
-262 -85 -319 -174 -430 -165 -206 -474 -313 -710 -246 -105 30 -161 63 -239
140 -115 115 -157 241 -139 425 4 45 14 106 23 136 21 75 45 177 68 289 19 89
19 95 3 140 -23 61 -59 99 -107 112 -27 7 -143 7 -385 -2 -379 -12 -483 -8
-550 21 -25 11 -49 20 -53 20 -19 0 -96 56 -145 106 -104 105 -145 246 -125
423 10 81 45 189 70 214 6 6 11 15 11 21 0 30 98 143 180 208 49 38 157 98
178 98 7 0 26 7 43 15 38 20 285 41 718 60 356 15 397 22 472 77 40 30 79 100
95 173 7 33 22 102 33 153 12 51 25 100 30 110 5 9 12 42 16 72 4 30 12 66 17
80 10 24 32 116 63 263 8 38 17 72 20 77 5 8 20 75 56 240 6 30 20 84 29 120
27 97 33 156 20 210 -25 104 -103 135 -308 119 -70 -5 -237 -11 -372 -12 -269
-2 -245 -6 -398 66 -69 32 -153 107 -196 175 -148 235 -51 591 216 795 20 15
41 27 46 27 5 0 20 8 33 18 13 10 49 27 79 39 48 18 87 27 222 48 15 2 150 9
300 15 381 15 580 35 638 62 24 12 55 34 68 48 31 32 71 121 78 174 3 23 14
70 24 106 9 36 22 88 28 115 14 63 53 226 92 385 11 41 22 91 26 110 47 256
218 442 494 536 65 23 92 26 210 26 122 1 141 -2 200 -25 104 -40 156 -74 214
-139 57 -63 94 -129 119 -213 33 -110 31 -152 -13 -340 -12 -49 -26 -112 -32
-140 -6 -27 -19 -77 -29 -109 -11 -33 -19 -70 -19 -82 0 -12 -9 -50 -20 -84
-41 -130 -16 -221 76 -275 47 -28 48 -28 183 -22 75 4 219 13 321 21 102 9
244 16 315 16 72 0 175 5 230 10 124 12 366 27 635 40 117 5 225 16 252 24 98
29 155 101 183 234 14 65 35 158 76 327 10 44 27 118 38 165 36 161 52 225 65
270 8 25 17 59 21 77 3 17 13 37 21 44 8 6 14 16 14 21 0 33 142 197 205 235
11 7 37 24 58 38 21 13 50 28 65 31 15 4 36 12 47 18 11 6 61 20 110 32 105
26 203 26 314 0z"/>
<path d="M5695 6463 c-22 -1 -96 -7 -165 -13 -69 -5 -252 -15 -407 -20 -155
-6 -324 -14 -375 -20 -51 -5 -229 -14 -395 -20 -256 -9 -312 -14 -360 -31
-101 -35 -160 -112 -183 -240 -6 -34 -16 -73 -21 -87 -6 -15 -17 -56 -24 -92
-8 -36 -19 -85 -25 -110 -6 -25 -20 -79 -30 -120 -10 -41 -26 -104 -35 -140
-8 -36 -22 -92 -29 -125 -26 -113 -47 -200 -61 -250 -8 -27 -19 -72 -25 -100
-5 -27 -17 -75 -25 -105 -19 -69 -19 -163 0 -199 21 -42 69 -78 113 -86 45 -7
575 11 710 25 52 6 214 15 360 20 147 6 319 15 382 20 63 6 189 14 280 19 177
9 203 16 273 80 28 26 77 121 77 150 0 9 7 44 16 76 9 33 22 87 29 120 21 97
45 196 61 250 8 28 21 82 29 120 9 39 24 106 35 150 10 44 24 103 30 130 19
81 50 205 71 282 10 40 19 104 19 142 0 64 -3 73 -30 105 -61 69 -122 83 -295
69z"/>
</g>
</svg>
